<svg width="25" height="25" viewBox="0 0 25 25" fill="none" xmlns="http://www.w3.org/2000/svg">
<path d="M17.0874 13.9799H5.93738C5.65404 13.9799 5.41671 13.8839 5.22538 13.6919C5.03404 13.4999 4.93804 13.2626 4.93738 12.9799C4.93738 12.6966 5.03338 12.4593 5.22538 12.2679C5.41738 12.0766 5.65471 11.9806 5.93738 11.9799H17.0874L14.2374 9.12994C14.0374 8.92994 13.9414 8.69661 13.9494 8.42994C13.9574 8.16328 14.0534 7.92994 14.2374 7.72994C14.4374 7.52994 14.675 7.42594 14.9504 7.41794C15.2257 7.40994 15.463 7.50561 15.6624 7.70494L20.2374 12.2799C20.3374 12.3799 20.4084 12.4883 20.4504 12.6049C20.4924 12.7216 20.513 12.8466 20.5124 12.9799C20.5124 13.1133 20.4917 13.2383 20.4504 13.3549C20.409 13.4716 20.338 13.5799 20.2374 13.6799L15.6624 18.2549C15.4624 18.4549 15.225 18.5509 14.9504 18.5429C14.6757 18.5349 14.438 18.4306 14.2374 18.2299C14.054 18.0299 13.958 17.7966 13.9494 17.5299C13.9407 17.2633 14.0367 17.0299 14.2374 16.8299L17.0874 13.9799Z" fill="black"/>
</svg>
