<svg width="25" height="24" viewBox="0 0 25 24" fill="none" xmlns="http://www.w3.org/2000/svg">
<path d="M4.28748 22V6H8.28748C8.28748 4.9 8.67914 3.95833 9.46248 3.175C10.2458 2.39167 11.1875 2 12.2875 2C13.3875 2 14.3291 2.39167 15.1125 3.175C15.8958 3.95833 16.2875 4.9 16.2875 6H20.2875V22H4.28748ZM6.28748 20H18.2875V8H16.2875V11H14.2875V8H10.2875V11H8.28748V8H6.28748V20ZM10.2875 6H14.2875C14.2875 5.45 14.0918 4.97933 13.7005 4.588C13.3091 4.19667 12.8381 4.00067 12.2875 4C11.7375 4 11.2668 4.196 10.8755 4.588C10.4841 4.98 10.2881 5.45067 10.2875 6Z" fill="black"/>
</svg>
