<svg width="25" height="25" viewBox="0 0 25 25" fill="none" xmlns="http://www.w3.org/2000/svg">
<path d="M4.5 22.6465V6.64648H8.5C8.5 5.54648 8.89167 4.60482 9.675 3.82148C10.4583 3.03815 11.4 2.64648 12.5 2.64648C13.6 2.64648 14.5417 3.03815 15.325 3.82148C16.1083 4.60482 16.5 5.54648 16.5 6.64648H20.5V22.6465H4.5ZM6.5 20.6465H18.5V8.64648H16.5V11.6465H14.5V8.64648H10.5V11.6465H8.5V8.64648H6.5V20.6465ZM10.5 6.64648H14.5C14.5 6.09648 14.3043 5.62582 13.913 5.23448C13.5217 4.84315 13.0507 4.64715 12.5 4.64648C11.95 4.64648 11.4793 4.84248 11.088 5.23448C10.6967 5.62648 10.5007 6.09715 10.5 6.64648Z" fill="#FAFEFD"/>
</svg>
