<svg width="24" height="25" viewBox="0 0 24 25" fill="none" xmlns="http://www.w3.org/2000/svg">
<path d="M12 13.6498L7.09999 18.5498C6.91665 18.7331 6.68332 18.8248 6.39999 18.8248C6.11665 18.8248 5.88332 18.7331 5.69999 18.5498C5.51665 18.3665 5.42499 18.1331 5.42499 17.8498C5.42499 17.5665 5.51665 17.3331 5.69999 17.1498L10.6 12.2498L5.69999 7.3498C5.51665 7.16647 5.42499 6.93314 5.42499 6.6498C5.42499 6.36647 5.51665 6.13314 5.69999 5.9498C5.88332 5.76647 6.11665 5.6748 6.39999 5.6748C6.68332 5.6748 6.91665 5.76647 7.09999 5.9498L12 10.8498L16.9 5.9498C17.0833 5.76647 17.3167 5.6748 17.6 5.6748C17.8833 5.6748 18.1167 5.76647 18.3 5.9498C18.4833 6.13314 18.575 6.36647 18.575 6.6498C18.575 6.93314 18.4833 7.16647 18.3 7.3498L13.4 12.2498L18.3 17.1498C18.4833 17.3331 18.575 17.5665 18.575 17.8498C18.575 18.1331 18.4833 18.3665 18.3 18.5498C18.1167 18.7331 17.8833 18.8248 17.6 18.8248C17.3167 18.8248 17.0833 18.7331 16.9 18.5498L12 13.6498Z" fill="black"/>
</svg>
