<svg width="25" height="25" viewBox="0 0 25 25" fill="none" xmlns="http://www.w3.org/2000/svg">
<path d="M12.1749 21.3049C11.9416 21.3049 11.7043 21.2632 11.4629 21.1799C11.2216 21.0965 11.0089 20.9632 10.8249 20.7799L9.09993 19.2049C7.33326 17.5882 5.73726 15.9842 4.31193 14.3929C2.88659 12.8015 2.17426 11.0472 2.17493 9.12988C2.17493 7.56322 2.69993 6.25488 3.74993 5.20488C4.79993 4.15488 6.10826 3.62988 7.67493 3.62988C8.55826 3.62988 9.39159 3.81722 10.1749 4.19188C10.9583 4.56655 11.6249 5.07922 12.1749 5.72988C12.7249 5.07988 13.3916 4.56755 14.1749 4.19288C14.9583 3.81822 15.7916 3.63055 16.6749 3.62988C18.2416 3.62988 19.5499 4.15488 20.5999 5.20488C21.6499 6.25488 22.1749 7.56322 22.1749 9.12988C22.1749 11.0465 21.4666 12.8049 20.0499 14.4049C18.6333 16.0049 17.0249 17.6132 15.2249 19.2299L13.5249 20.7799C13.3416 20.9632 13.1293 21.0965 12.8879 21.1799C12.6466 21.2632 12.4089 21.3049 12.1749 21.3049ZM11.2249 7.72988C10.7416 7.04655 10.2249 6.52555 9.67493 6.16688C9.12493 5.80822 8.45826 5.62922 7.67493 5.62988C6.67493 5.62988 5.84159 5.96322 5.17493 6.62988C4.50826 7.29655 4.17493 8.12988 4.17493 9.12988C4.17493 9.99655 4.48326 10.9176 5.09993 11.8929C5.71659 12.8682 6.45426 13.8139 7.31293 14.7299C8.17093 15.6466 9.05426 16.5049 9.96293 17.3049C10.8716 18.1049 11.6089 18.7632 12.1749 19.2799C12.7416 18.7632 13.4793 18.1049 14.3879 17.3049C15.2966 16.5049 16.1799 15.6466 17.0379 14.7299C17.8959 13.8132 18.6333 12.8675 19.2499 11.8929C19.8666 10.9182 20.1749 9.99722 20.1749 9.12988C20.1749 8.12988 19.8416 7.29655 19.1749 6.62988C18.5083 5.96322 17.6749 5.62988 16.6749 5.62988C15.8916 5.62988 15.2249 5.80922 14.6749 6.16788C14.1249 6.52655 13.6083 7.04722 13.1249 7.72988C13.0083 7.89655 12.8666 8.02155 12.6999 8.10488C12.5333 8.18822 12.3583 8.22988 12.1749 8.22988C11.9916 8.22988 11.8166 8.18822 11.6499 8.10488C11.4833 8.02155 11.3416 7.89655 11.2249 7.72988Z" fill="black"/>
</svg>
