<svg width="25" height="25" viewBox="0 0 25 25" fill="none" xmlns="http://www.w3.org/2000/svg">
<path d="M12.6094 20.894C12.376 20.894 12.1387 20.8523 11.8974 20.769C11.656 20.6857 11.4434 20.5523 11.2594 20.369L9.53438 18.794C7.76771 17.1773 6.17171 15.5733 4.74638 13.982C3.32104 12.3907 2.60871 10.6363 2.60938 8.71899C2.60938 7.15233 3.13438 5.84399 4.18438 4.79399C5.23438 3.74399 6.54271 3.21899 8.10938 3.21899C8.99271 3.21899 9.82604 3.40633 10.6094 3.78099C11.3927 4.15566 12.0594 4.66833 12.6094 5.31899C13.1594 4.66899 13.826 4.15666 14.6094 3.78199C15.3927 3.40733 16.226 3.21966 17.1094 3.21899C18.676 3.21899 19.9844 3.74399 21.0344 4.79399C22.0844 5.84399 22.6094 7.15233 22.6094 8.71899C22.6094 10.6357 21.901 12.394 20.4844 13.994C19.0677 15.594 17.4594 17.2023 15.6594 18.819L13.9594 20.369C13.776 20.5523 13.5637 20.6857 13.3224 20.769C13.081 20.8523 12.8434 20.894 12.6094 20.894ZM11.6594 7.31899C11.176 6.63566 10.6594 6.11466 10.1094 5.75599C9.55938 5.39733 8.89271 5.21833 8.10938 5.21899C7.10938 5.21899 6.27604 5.55233 5.60938 6.21899C4.94271 6.88566 4.60938 7.71899 4.60938 8.71899C4.60938 9.58566 4.91771 10.5067 5.53438 11.482C6.15104 12.4573 6.88871 13.403 7.74738 14.319C8.60538 15.2357 9.48871 16.094 10.3974 16.894C11.306 17.694 12.0434 18.3523 12.6094 18.869C13.176 18.3523 13.9137 17.694 14.8224 16.894C15.731 16.094 16.6144 15.2357 17.4724 14.319C18.3304 13.4023 19.0677 12.4567 19.6844 11.482C20.301 10.5073 20.6094 9.58633 20.6094 8.71899C20.6094 7.71899 20.276 6.88566 19.6094 6.21899C18.9427 5.55233 18.1094 5.21899 17.1094 5.21899C16.326 5.21899 15.6594 5.39833 15.1094 5.75699C14.5594 6.11566 14.0427 6.63633 13.5594 7.31899C13.4427 7.48566 13.301 7.61066 13.1344 7.69399C12.9677 7.77733 12.7927 7.81899 12.6094 7.81899C12.426 7.81899 12.251 7.77733 12.0844 7.69399C11.9177 7.61066 11.776 7.48566 11.6594 7.31899Z" fill="#B7B7B7"/>
</svg>
