<svg width="25" height="25" viewBox="0 0 25 25" fill="none" xmlns="http://www.w3.org/2000/svg">
<path d="M9.78748 16.8936C7.97081 16.8936 6.43348 16.2642 5.17548 15.0056C3.91748 13.7469 3.28814 12.2096 3.28748 10.3936C3.28748 8.57689 3.91681 7.03955 5.17548 5.78155C6.43414 4.52355 7.97148 3.89422 9.78748 3.89355C11.6041 3.89355 13.1418 4.52289 14.4005 5.78155C15.6591 7.04022 16.2881 8.57755 16.2875 10.3936C16.2875 11.1269 16.1708 11.8186 15.9375 12.4686C15.7041 13.1186 15.3875 13.6936 14.9875 14.1936L20.5875 19.7936C20.7708 19.9769 20.8625 20.2102 20.8625 20.4936C20.8625 20.7769 20.7708 21.0102 20.5875 21.1936C20.4041 21.3769 20.1708 21.4686 19.8875 21.4686C19.6041 21.4686 19.3708 21.3769 19.1875 21.1936L13.5875 15.5936C13.0875 15.9936 12.5125 16.3102 11.8625 16.5436C11.2125 16.7769 10.5208 16.8936 9.78748 16.8936ZM9.78748 14.8936C11.0375 14.8936 12.1001 14.4562 12.9755 13.5816C13.8508 12.7069 14.2881 11.6442 14.2875 10.3936C14.2875 9.14355 13.8501 8.08122 12.9755 7.20655C12.1008 6.33189 11.0381 5.89422 9.78748 5.89355C8.53748 5.89355 7.47514 6.33122 6.60048 7.20655C5.72581 8.08189 5.28814 9.14422 5.28748 10.3936C5.28748 11.6436 5.72514 12.7062 6.60048 13.5816C7.47581 14.4569 8.53814 14.8942 9.78748 14.8936Z" fill="black"/>
</svg>
