<svg width="25" height="25" viewBox="0 0 25 25" fill="none" xmlns="http://www.w3.org/2000/svg">
<path d="M18.875 0.0878906H6.125C3.0184 0.0878906 0.5 2.60629 0.5 5.71289V18.4629C0.5 21.5695 3.0184 24.0879 6.125 24.0879H18.875C21.9816 24.0879 24.5 21.5695 24.5 18.4629V5.71289C24.5 2.60629 21.9816 0.0878906 18.875 0.0878906Z" fill="url(#paint0_radial_349_867)"/>
<path d="M18.875 0.0878906H6.125C3.0184 0.0878906 0.5 2.60629 0.5 5.71289V18.4629C0.5 21.5695 3.0184 24.0879 6.125 24.0879H18.875C21.9816 24.0879 24.5 21.5695 24.5 18.4629V5.71289C24.5 2.60629 21.9816 0.0878906 18.875 0.0878906Z" fill="url(#paint1_radial_349_867)"/>
<path d="M12.5008 2.71289C9.95478 2.71289 9.63519 2.72405 8.63525 2.76952C7.63719 2.81527 6.95591 2.97323 6.35984 3.20508C5.74316 3.44452 5.22013 3.76486 4.69906 4.28611C4.17753 4.80727 3.85719 5.3303 3.617 5.9467C3.3845 6.54295 3.22634 7.22452 3.18144 8.22211C3.13672 9.22214 3.125 9.54183 3.125 12.088C3.125 14.6341 3.13625 14.9527 3.18163 15.9526C3.22756 16.9507 3.38553 17.632 3.61719 18.228C3.85681 18.8447 4.17716 19.3678 4.69841 19.8888C5.21938 20.4104 5.74241 20.7315 6.35862 20.9709C6.95516 21.2027 7.63653 21.3607 8.63441 21.4065C9.63444 21.4519 9.95375 21.4631 12.4997 21.4631C15.0461 21.4631 15.3646 21.4519 16.3646 21.4065C17.3626 21.3607 18.0447 21.2027 18.6412 20.9709C19.2576 20.7315 19.7799 20.4104 20.3007 19.8888C20.8223 19.3678 21.1425 18.8447 21.3828 18.2283C21.6133 17.632 21.7715 16.9505 21.8184 15.9528C21.8633 14.9529 21.875 14.6341 21.875 12.088C21.875 9.54183 21.8633 9.22233 21.8184 8.2223C21.7715 7.22423 21.6133 6.54305 21.3828 5.94698C21.1425 5.3303 20.8223 4.80727 20.3007 4.28611C19.7793 3.76467 19.2578 3.44433 18.6406 3.20517C18.043 2.97323 17.3613 2.81517 16.3632 2.76952C15.3632 2.72405 15.0448 2.71289 12.4979 2.71289H12.5008ZM11.6598 4.40236C11.9095 4.40198 12.188 4.40236 12.5008 4.40236C15.0041 4.40236 15.3007 4.41136 16.2892 4.45627C17.2032 4.49808 17.6994 4.6508 18.0298 4.77914C18.4674 4.94902 18.7793 5.15217 19.1072 5.48039C19.4353 5.80852 19.6384 6.12098 19.8088 6.55852C19.9371 6.88852 20.09 7.38464 20.1316 8.2987C20.1765 9.28702 20.1863 9.58383 20.1863 12.0858C20.1863 14.5878 20.1765 14.8847 20.1316 15.873C20.0898 16.787 19.9371 17.2831 19.8088 17.6132C19.6389 18.0508 19.4353 18.3623 19.1072 18.6902C18.7791 19.0184 18.4676 19.2214 18.0298 19.3914C17.6997 19.5203 17.2032 19.6726 16.2892 19.7145C15.3009 19.7594 15.0041 19.7691 12.5008 19.7691C9.99753 19.7691 9.70081 19.7594 8.71259 19.7145C7.79853 19.6723 7.30241 19.5195 6.97166 19.3912C6.53422 19.2212 6.22166 19.0182 5.89353 18.69C5.56541 18.3619 5.36234 18.0502 5.192 17.6125C5.06366 17.2824 4.91075 16.7863 4.86913 15.8722C4.82422 14.8839 4.81522 14.5871 4.81522 12.0835C4.81522 9.57998 4.82422 9.28467 4.86913 8.29636C4.91094 7.3823 5.06366 6.88617 5.192 6.5557C5.36197 6.11817 5.56541 5.8057 5.89363 5.47758C6.22175 5.14945 6.53422 4.9463 6.97175 4.77605C7.30222 4.64714 7.79853 4.4948 8.71259 4.4528C9.57744 4.4137 9.91259 4.40198 11.6598 4.40002V4.40236ZM17.5052 5.95898C16.8841 5.95898 16.3802 6.46242 16.3802 7.08361C16.3802 7.7047 16.8841 8.20861 17.5052 8.20861C18.1263 8.20861 18.6302 7.7047 18.6302 7.08361C18.6302 6.46252 18.1263 5.95861 17.5052 5.95861V5.95898ZM12.5008 7.27345C9.84209 7.27345 7.68641 9.42914 7.68641 12.088C7.68641 14.7468 9.84209 16.9015 12.5008 16.9015C15.1597 16.9015 17.3146 14.7468 17.3146 12.088C17.3146 9.42923 15.1595 7.27345 12.5007 7.27345H12.5008ZM12.5008 8.96292C14.2267 8.96292 15.6259 10.362 15.6259 12.088C15.6259 13.8138 14.2267 15.213 12.5008 15.213C10.7749 15.213 9.37588 13.8138 9.37588 12.088C9.37588 10.362 10.7749 8.96292 12.5008 8.96292Z" fill="white"/>
<defs>
<radialGradient id="paint0_radial_349_867" cx="0" cy="0" r="1" gradientUnits="userSpaceOnUse" gradientTransform="translate(6.875 25.9364) rotate(-90) scale(23.7858 22.1227)">
<stop stop-color="#FFDD55"/>
<stop offset="0.1" stop-color="#FFDD55"/>
<stop offset="0.5" stop-color="#FF543E"/>
<stop offset="1" stop-color="#C837AB"/>
</radialGradient>
<radialGradient id="paint1_radial_349_867" cx="0" cy="0" r="1" gradientUnits="userSpaceOnUse" gradientTransform="translate(-3.52009 1.81673) rotate(78.681) scale(10.6324 43.827)">
<stop stop-color="#3771C8"/>
<stop offset="0.128" stop-color="#3771C8"/>
<stop offset="1" stop-color="#6600FF" stop-opacity="0"/>
</radialGradient>
</defs>
</svg>
