<svg width="40" height="41" viewBox="0 0 40 41" fill="none" xmlns="http://www.w3.org/2000/svg">
<path d="M13.3333 15.0243H26.6667M13.3333 21.6909H23.3333M15 30.0243H10C8.67392 30.0243 7.40215 29.4975 6.46447 28.5598C5.52678 27.6221 5 26.3503 5 25.0243V11.6909C5 10.3648 5.52678 9.09307 6.46447 8.15538C7.40215 7.2177 8.67392 6.69092 10 6.69092H30C31.3261 6.69092 32.5979 7.2177 33.5355 8.15538C34.4732 9.09307 35 10.3648 35 11.6909V25.0243C35 26.3503 34.4732 27.6221 33.5355 28.5598C32.5979 29.4975 31.3261 30.0243 30 30.0243H25L20 35.0243L15 30.0243Z" stroke="white" stroke-width="2" stroke-linecap="round" stroke-linejoin="round"/>
</svg>
