<svg width="24" height="25" viewBox="0 0 24 25" fill="none" xmlns="http://www.w3.org/2000/svg">
<g clip-path="url(#clip0_349_877)">
<path d="M12 0.0878906C8.81812 0.0878906 5.76375 1.35295 3.51562 3.60258C1.26518 5.8531 0.000623381 8.90523 0 12.0879C0 15.2692 1.26562 18.3236 3.51562 20.5732C5.76375 22.8228 8.81812 24.0879 12 24.0879C15.1819 24.0879 18.2362 22.8228 20.4844 20.5732C22.7344 18.3236 24 15.2692 24 12.0879C24 8.90658 22.7344 5.8522 20.4844 3.60258C18.2362 1.35295 15.1819 0.0878906 12 0.0878906Z" fill="url(#paint0_linear_349_877)"/>
<path d="M5.4319 11.9609C8.93065 10.4369 11.2632 9.43213 12.4294 8.94669C15.7632 7.5605 16.455 7.31975 16.9069 7.31159C17.0063 7.31 17.2275 7.33456 17.3719 7.45128C17.4919 7.54972 17.5257 7.68284 17.5425 7.77631C17.5575 7.86969 17.5782 8.0825 17.5613 8.24863C17.3813 10.1461 16.5994 14.7508 16.2019 16.8761C16.035 17.7753 15.7032 18.0768 15.3825 18.1063C14.685 18.1704 14.1563 17.6458 13.4813 17.2034C12.4257 16.511 11.8294 16.0801 10.8038 15.4046C9.61878 14.6238 10.3875 14.1946 11.0625 13.4934C11.2388 13.3098 14.31 10.517 14.3682 10.2637C14.3757 10.232 14.3832 10.1139 14.3119 10.0516C14.2425 9.98919 14.1394 10.0106 14.0644 10.0274C13.9575 10.0514 12.2719 11.1667 9.0019 13.373C8.52378 13.7019 8.09065 13.8622 7.70065 13.8538C7.27315 13.8446 6.44815 13.6115 5.83503 13.4124C5.08503 13.1681 4.4869 13.0389 4.5394 12.6239C4.56565 12.4079 4.86378 12.1869 5.4319 11.9609Z" fill="white"/>
</g>
<defs>
<linearGradient id="paint0_linear_349_877" x1="1200" y1="0.0878906" x2="1200" y2="2400.09" gradientUnits="userSpaceOnUse">
<stop stop-color="#2AABEE"/>
<stop offset="1" stop-color="#229ED9"/>
</linearGradient>
<clipPath id="clip0_349_877">
<rect width="24" height="24" fill="white" transform="translate(0 0.0878906)"/>
</clipPath>
</defs>
</svg>
