<svg width="25" height="25" viewBox="0 0 25 25" fill="none" xmlns="http://www.w3.org/2000/svg">
<g clip-path="url(#clip0_366_1589)">
<path d="M12.2699 0.0739084C12.3176 0.0740094 12.3653 0.0741105 12.4145 0.0742145C13.0993 0.0765429 13.7711 0.0883036 14.4437 0.229182C14.4894 0.238495 14.5351 0.247808 14.5822 0.257403C16.8501 0.731807 18.912 1.75914 20.5843 3.36981C20.6307 3.41425 20.6307 3.41425 20.678 3.4596C21.1228 3.88824 21.5324 4.32406 21.8968 4.82293C21.9371 4.87689 21.9773 4.93084 22.0175 4.9848C22.3006 5.36876 22.5517 5.76784 22.7875 6.18231C22.8046 6.21192 22.8216 6.24154 22.8392 6.27205C23.852 8.0415 24.3098 10.0462 24.3021 12.071C24.302 12.1187 24.3019 12.1664 24.3018 12.2156C24.2995 12.9004 24.2877 13.5722 24.1468 14.2448C24.1329 14.3134 24.1329 14.3134 24.1186 14.3833C23.6442 16.6512 22.6169 18.7131 21.0062 20.3854C20.9766 20.4163 20.947 20.4472 20.9164 20.4791C20.4878 20.9239 20.052 21.3335 19.5531 21.6979C19.4991 21.7382 19.4452 21.7784 19.3912 21.8186C19.0073 22.1016 18.6088 22.3539 18.1937 22.5886C18.1606 22.6074 18.1274 22.6263 18.0933 22.6457C17.0088 23.2563 15.8289 23.6664 14.6107 23.9157C14.577 23.9226 14.5433 23.9295 14.5086 23.9366C13.8207 24.0674 13.1398 24.1049 12.4409 24.1034C12.3031 24.1032 12.1653 24.1043 12.0276 24.1055C11.4007 24.1076 10.7962 24.0511 10.1781 23.9479C10.0981 23.9347 10.0981 23.9347 10.0166 23.9212C7.98842 23.5569 6.06421 22.62 4.50622 21.2761C4.47129 21.2463 4.43637 21.2166 4.40039 21.186C3.76734 20.6323 3.17337 20.0346 2.6781 19.3542C2.63795 19.3003 2.59779 19.2464 2.55761 19.1925C2.27449 18.8086 2.02214 18.4099 1.78747 17.9948C1.76862 17.9617 1.74977 17.9285 1.73034 17.8944C1.11977 16.8099 0.709673 15.63 0.460322 14.4118C0.453415 14.3781 0.446507 14.3444 0.439391 14.3097C0.299991 13.5763 0.269986 12.8509 0.272822 12.1061C0.272923 12.0584 0.273024 12.0107 0.273128 11.9615C0.275456 11.2767 0.287217 10.6049 0.428095 9.93231C0.437408 9.88661 0.446721 9.84091 0.456317 9.79383C0.930721 7.52593 1.95806 5.46398 3.56872 3.79168C3.59835 3.76077 3.62798 3.72987 3.65851 3.69802C4.08716 3.25326 4.52297 2.84358 5.02185 2.47918C5.0758 2.43896 5.12976 2.39874 5.18371 2.35852C5.5676 2.07551 5.96616 1.82319 6.38122 1.58856C6.41437 1.5697 6.44752 1.55085 6.48168 1.53143C7.56615 0.920861 8.74605 0.510759 9.96423 0.261408C9.99793 0.254501 10.0316 0.247594 10.0663 0.240477C10.7998 0.101078 11.5251 0.0710723 12.2699 0.0739084Z" fill="#6F3FAA"/>
<path d="M14.8188 4.72908C14.87 4.73586 14.9212 4.74263 14.974 4.74961C16.1513 4.91228 17.0832 5.3254 17.9594 6.13533C18.0145 6.18545 18.0145 6.18545 18.0707 6.23659C19.3069 7.41241 19.5209 9.11381 19.5683 10.7381C19.5958 11.9584 19.609 13.5189 19.0727 14.6344C19.0584 14.6652 19.0442 14.6961 19.0295 14.728C18.475 15.9011 17.4519 16.884 16.225 17.3267C15.5219 17.5495 14.7885 17.6317 14.057 17.6988C14.0229 17.7021 13.9888 17.7054 13.9536 17.7088C13.5236 17.7493 13.1044 17.7621 12.6728 17.7415C11.6558 17.6696 11.6558 17.6696 10.7789 18.1058C10.5343 18.3429 10.3322 18.6111 10.1313 18.8853C9.63219 19.4892 9.63219 19.4892 9.33438 19.5885C9.06644 19.6137 8.93322 19.5713 8.725 19.401C8.5322 19.1816 8.52876 18.9712 8.52267 18.69C8.52121 18.6341 8.52121 18.6341 8.51972 18.5771C8.51666 18.4581 8.51389 18.3392 8.51114 18.2203C8.50911 18.1396 8.50707 18.059 8.505 17.9783C8.49998 17.7807 8.49524 17.583 8.49063 17.3853C8.41569 17.3536 8.41569 17.3536 8.33923 17.3213C7.03802 16.7653 5.99887 15.8322 5.45254 14.5054C5.0879 13.4908 5.01138 12.3001 5.01309 11.2301C5.01312 11.1971 5.01315 11.1642 5.01318 11.1302C5.01736 9.32763 5.22527 7.64625 6.475 6.27596C6.51751 6.22846 6.51751 6.22846 6.56088 6.18001C8.4918 4.13163 12.2685 4.38776 14.8188 4.72908Z" fill="#6F40AA"/>
<path d="M14.8188 4.72908C14.87 4.73586 14.9212 4.74263 14.974 4.74961C16.1513 4.91228 17.0832 5.3254 17.9594 6.13533C18.0145 6.18545 18.0145 6.18545 18.0707 6.23659C19.3069 7.41241 19.5209 9.11381 19.5683 10.7381C19.5958 11.9584 19.609 13.5189 19.0727 14.6344C19.0584 14.6652 19.0442 14.6961 19.0295 14.728C18.475 15.9011 17.4519 16.884 16.225 17.3267C15.5219 17.5495 14.7885 17.6317 14.057 17.6988C14.0229 17.7021 13.9888 17.7054 13.9536 17.7088C13.5236 17.7493 13.1044 17.7621 12.6728 17.7415C11.6558 17.6696 11.6558 17.6696 10.7789 18.1058C10.5343 18.3429 10.3322 18.6111 10.1313 18.8853C9.63219 19.4892 9.63219 19.4892 9.33438 19.5885C9.06644 19.6137 8.93322 19.5713 8.725 19.401C8.5322 19.1816 8.52876 18.9712 8.52267 18.69C8.52121 18.6341 8.52121 18.6341 8.51972 18.5771C8.51666 18.4581 8.51389 18.3392 8.51114 18.2203C8.50911 18.1396 8.50707 18.059 8.505 17.9783C8.49998 17.7807 8.49524 17.583 8.49063 17.3853C8.41569 17.3536 8.41569 17.3536 8.33923 17.3213C7.03802 16.7653 5.99887 15.8322 5.45254 14.5054C5.0879 13.4908 5.01138 12.3001 5.01309 11.2301C5.01312 11.1971 5.01315 11.1642 5.01318 11.1302C5.01736 9.32763 5.22527 7.64625 6.475 6.27596C6.51751 6.22846 6.51751 6.22846 6.56088 6.18001C8.4918 4.13163 12.2685 4.38776 14.8188 4.72908ZM9.70938 6.04158C9.63534 6.0524 9.56131 6.0632 9.48727 6.07399C8.50367 6.2274 7.69731 6.76046 7.09024 7.53865C6.05376 8.99761 6.18793 11.4086 6.44795 13.1087C6.63432 14.1885 7.09906 15.0261 7.99899 15.6823C8.32459 15.9078 8.68653 16.0668 9.05313 16.2135C9.0686 17.1106 9.08407 18.0078 9.1 18.9322C9.31829 19.004 9.31829 19.004 9.42463 18.9215C9.45273 18.8922 9.48084 18.8629 9.50979 18.8328C9.5414 18.8005 9.573 18.7682 9.60556 18.7349C9.63788 18.7004 9.67021 18.666 9.70352 18.6304C9.73548 18.5976 9.76745 18.5648 9.80038 18.5309C10.0585 18.2638 10.3055 17.9875 10.5383 17.698C11.5351 16.4696 11.5351 16.4696 12.1888 16.4004C12.5092 16.3788 12.831 16.4013 13.1505 16.4279C13.5025 16.4564 13.8379 16.4279 14.1889 16.3863C14.2442 16.3801 14.2996 16.374 14.3567 16.3676C15.2828 16.2586 16.0338 16.0729 16.7875 15.5103C16.8195 15.4866 16.8514 15.463 16.8844 15.4386C17.6018 14.8659 17.9744 14.0499 18.1088 13.1637C18.1165 13.1162 18.1242 13.0688 18.1321 13.02C18.1542 12.8815 18.1745 12.743 18.1938 12.6041C18.1988 12.5684 18.2039 12.5327 18.2091 12.496C18.2545 12.1216 18.2493 11.7443 18.2493 11.3678C18.2494 11.2494 18.2503 11.1309 18.2512 11.0124C18.2555 9.76055 18.1932 8.38794 17.35 7.40096C17.3221 7.36633 17.2943 7.33171 17.2656 7.29604C17.0173 6.99845 16.7329 6.77357 16.4125 6.55721C16.3684 6.52657 16.3243 6.49593 16.2788 6.46437C15.801 6.16874 15.2728 6.11546 14.725 6.04158C14.654 6.03145 14.5829 6.02132 14.5119 6.01118C14.3332 5.9868 14.1546 5.9646 13.975 5.94783C13.9328 5.94376 13.8906 5.93969 13.8472 5.93549C13.2939 5.88885 12.7399 5.88963 12.185 5.88924C12.1329 5.88917 12.0808 5.88911 12.0272 5.88905C11.2443 5.88925 10.4833 5.91573 9.70938 6.04158Z" fill="#FDFCFD"/>
<path d="M10.0375 7.91667C10.4759 8.26002 11.1004 9.09346 11.183 9.64812C11.1493 9.88398 11.0601 10.0476 10.8807 10.1998C10.8147 10.2485 10.7479 10.2959 10.68 10.3419C10.5934 10.3966 10.5934 10.3966 10.5531 10.4948C10.5296 10.7959 10.5837 10.9942 10.7172 11.2624C10.7341 11.2971 10.751 11.3319 10.7684 11.3677C10.9125 11.6548 11.084 11.8998 11.3031 12.1354C11.329 12.165 11.3548 12.1945 11.3815 12.225C11.7469 12.6208 12.3066 12.9677 12.8412 13.0553C13.1403 12.9967 13.309 12.7583 13.4923 12.5317C13.5684 12.4464 13.6226 12.4199 13.7356 12.405C14.0242 12.3944 14.1934 12.4571 14.4291 12.6188C14.4609 12.6397 14.4926 12.6605 14.5254 12.682C15.451 13.3002 15.451 13.3002 15.6625 13.6354C15.7057 13.9516 15.551 14.177 15.3812 14.4323C15.159 14.7135 14.8845 14.9368 14.5375 15.0417C14.2489 15.0653 14.0497 15.0176 13.7875 14.901C13.7531 14.8863 13.7188 14.8715 13.6834 14.8562C13.577 14.8098 13.4712 14.762 13.3656 14.7135C13.3334 14.6988 13.3012 14.684 13.268 14.6688C11.1503 13.682 9.70888 12.0825 8.76313 9.96997C8.72979 9.89605 8.69509 9.82275 8.66018 9.74956C8.51821 9.43485 8.46304 9.12226 8.57558 8.78789C8.80732 8.31958 9.47279 7.66635 10.0375 7.91667Z" fill="#FDFDFE"/>
<path d="M12.2022 7.43555C13.2624 7.44169 14.158 7.84915 14.9213 8.57703C15.6213 9.31258 15.9147 10.3191 15.911 11.3163C15.8969 11.4324 15.8969 11.4324 15.8031 11.5261C15.6859 11.5408 15.6859 11.5408 15.5687 11.5261C15.4735 11.3833 15.4623 11.3437 15.4536 11.1812C15.4509 11.1408 15.4482 11.1004 15.4454 11.0588C15.4426 11.0158 15.4398 10.9728 15.4369 10.9285C15.3858 10.2986 15.2357 9.75275 14.8656 9.22925C14.8245 9.17006 14.8245 9.17006 14.7825 9.10968C14.3349 8.50769 13.6333 8.09902 12.8969 7.96362C12.7215 7.94148 12.5457 7.92236 12.3695 7.90837C12.1219 7.88549 12.1219 7.88549 12.0057 7.80267C11.9594 7.72925 11.9594 7.72925 11.9681 7.63257C12.0215 7.50543 12.0627 7.45255 12.2022 7.43555Z" fill="#FAF8FC"/>
<path d="M12.5365 8.37354C13.1758 8.38603 13.8462 8.68227 14.3049 9.12482C14.7148 9.58943 14.9643 10.1631 14.9681 10.7847C14.9688 10.8337 14.9695 10.8827 14.9702 10.9332C14.9594 11.0571 14.9594 11.0571 14.8656 11.1509C14.7484 11.1626 14.7484 11.1626 14.6312 11.1509C14.495 11.0147 14.5118 10.8626 14.4965 10.6792C14.4338 10.0667 14.187 9.608 13.7086 9.21033C13.3562 8.96671 12.9764 8.87498 12.5554 8.83313C12.4176 8.80498 12.3669 8.78137 12.2875 8.6665C12.3138 8.39034 12.3138 8.39034 12.5365 8.37354Z" fill="#F9F8FB"/>
<path d="M12.8236 9.35498C13.1611 9.35923 13.5025 9.50652 13.7406 9.74463C13.9843 10.0649 14.0707 10.3764 14.0219 10.7759C13.9909 10.8068 13.96 10.8378 13.9281 10.8696C13.8109 10.8608 13.8109 10.8608 13.6937 10.8228C13.5947 10.6741 13.575 10.5798 13.5414 10.4067C13.485 10.1655 13.485 10.1655 13.3392 9.97314C13.1621 9.87655 13.0143 9.84251 12.8157 9.8175C12.6919 9.78725 12.6438 9.75296 12.5687 9.65088C12.5897 9.43027 12.5965 9.37563 12.8236 9.35498Z" fill="#F9F7FB"/>
</g>
<defs>
<clipPath id="clip0_366_1589">
<rect width="24" height="24" fill="white" transform="translate(0.287476 0.0883789)"/>
</clipPath>
</defs>
</svg>
