<svg width="17" height="16" viewBox="0 0 17 16" fill="none" xmlns="http://www.w3.org/2000/svg">
<path d="M5.15833 4.26659L7.025 1.84992C7.15833 1.67214 7.31677 1.5417 7.50033 1.45859C7.68388 1.37547 7.87544 1.3337 8.075 1.33325C8.275 1.33325 8.46677 1.37503 8.65033 1.45859C8.83388 1.54214 8.99211 1.67259 9.125 1.84992L10.9917 4.26659L13.825 5.21659C14.1139 5.30547 14.3417 5.46947 14.5083 5.70859C14.675 5.9477 14.7583 6.21147 14.7583 6.49992C14.7583 6.63325 14.7388 6.76659 14.6997 6.89992C14.6606 7.03325 14.5968 7.16103 14.5083 7.28325L12.675 9.88325L12.7417 12.6166C12.7528 13.0055 12.625 13.3333 12.3583 13.5999C12.0917 13.8666 11.7806 13.9999 11.425 13.9999C11.4028 13.9999 11.2806 13.9833 11.0583 13.9499L8.075 13.1166L5.09166 13.9499C5.03611 13.9721 4.975 13.9861 4.90833 13.9919C4.84166 13.9977 4.78055 14.0004 4.725 13.9999C4.36944 13.9999 4.05833 13.8666 3.79166 13.5999C3.525 13.3333 3.39722 13.0055 3.40833 12.6166L3.475 9.86659L1.65833 7.28325C1.56944 7.16103 1.50544 7.03325 1.46633 6.89992C1.42722 6.76659 1.40788 6.63325 1.40833 6.49992C1.40833 6.22214 1.489 5.96392 1.65033 5.72525C1.81166 5.48659 2.03655 5.31703 2.325 5.21659L5.15833 4.26659Z" fill="#201F22"/>
</svg>
