<svg width="17" height="16" viewBox="0 0 17 16" fill="none" xmlns="http://www.w3.org/2000/svg">
<path d="M5.58333 4.26683L7.45 1.85016C7.58333 1.67239 7.74178 1.54194 7.92533 1.45883C8.10889 1.37572 8.30045 1.33394 8.5 1.3335C8.7 1.3335 8.89178 1.37527 9.07533 1.45883C9.25889 1.54238 9.41711 1.67283 9.55 1.85016L11.4167 4.26683L14.25 5.21683C14.5389 5.30572 14.7667 5.46972 14.9333 5.70883C15.1 5.94794 15.1833 6.21172 15.1833 6.50016C15.1833 6.6335 15.1638 6.76683 15.1247 6.90016C15.0856 7.0335 15.0218 7.16127 14.9333 7.2835L13.1 9.8835L13.1667 12.6168C13.1778 13.0057 13.05 13.3335 12.7833 13.6002C12.5167 13.8668 12.2056 14.0002 11.85 14.0002C11.8278 14.0002 11.7056 13.9835 11.4833 13.9502L8.5 13.1168L5.51667 13.9502C5.46111 13.9724 5.4 13.9864 5.33333 13.9922C5.26667 13.9979 5.20556 14.0006 5.15 14.0002C4.79445 14.0002 4.48333 13.8668 4.21667 13.6002C3.95 13.3335 3.82222 13.0057 3.83333 12.6168L3.9 9.86683L2.08333 7.2835C1.99444 7.16127 1.93044 7.0335 1.89133 6.90016C1.85222 6.76683 1.83289 6.6335 1.83333 6.50016C1.83333 6.22238 1.914 5.96416 2.07533 5.7255C2.23667 5.48683 2.46156 5.31727 2.75 5.21683L5.58333 4.26683ZM6.4 5.41683L3.16667 6.4835L5.23333 9.46683L5.16667 12.6502L8.5 11.7335L11.8333 12.6668L11.7667 9.46683L13.8333 6.51683L10.6 5.41683L8.5 2.66683L6.4 5.41683Z" fill="#201F22"/>
</svg>
